solid OpenSCAD_Model
  facet normal -1 0 0
    outer loop
      vertex -48 -48 -0.9
      vertex -48 48 0.9
      vertex -48 48 -0.9
    endloop
  endfacet
  facet normal -1 -0 0
    outer loop
      vertex -48 48 0.9
      vertex -48 -48 -0.9
      vertex -48 -48 0.9
    endloop
  endfacet
  facet normal 0 0 1
    outer loop
      vertex 48 48 0.9
      vertex 40.5 40.5 0.9
      vertex 48 -48 0.9
    endloop
  endfacet
  facet normal 0 0 1
    outer loop
      vertex 48 48 0.9
      vertex -40.5 40.5 0.9
      vertex 40.5 40.5 0.9
    endloop
  endfacet
  facet normal 0 0 1
    outer loop
      vertex -40.5 40.5 0.9
      vertex -48 48 0.9
      vertex -40.5 -40.5 0.9
    endloop
  endfacet
  facet normal -0 0 1
    outer loop
      vertex -48 48 0.9
      vertex -40.5 40.5 0.9
      vertex 48 48 0.9
    endloop
  endfacet
  facet normal -0 0 1
    outer loop
      vertex 40.5 -40.5 0.9
      vertex 48 -48 0.9
      vertex 40.5 40.5 0.9
    endloop
  endfacet
  facet normal -0 0 1
    outer loop
      vertex -40.5 -40.5 0.9
      vertex 48 -48 0.9
      vertex 40.5 -40.5 0.9
    endloop
  endfacet
  facet normal 0 0 1
    outer loop
      vertex -40.5 -40.5 0.9
      vertex -48 -48 0.9
      vertex 48 -48 0.9
    endloop
  endfacet
  facet normal 0 0 1
    outer loop
      vertex -48 -48 0.9
      vertex -40.5 -40.5 0.9
      vertex -48 48 0.9
    endloop
  endfacet
  facet normal 1 -0 0
    outer loop
      vertex 48 -48 0.9
      vertex 48 48 -0.9
      vertex 48 48 0.9
    endloop
  endfacet
  facet normal 1 0 0
    outer loop
      vertex 48 48 -0.9
      vertex 48 -48 0.9
      vertex 48 -48 -0.9
    endloop
  endfacet
  facet normal 0 0 -1
    outer loop
      vertex 48 -48 -0.9
      vertex 40.5 -40.5 -0.9
      vertex 48 48 -0.9
    endloop
  endfacet
  facet normal 0 0 -1
    outer loop
      vertex 48 -48 -0.9
      vertex -40.5 -40.5 -0.9
      vertex 40.5 -40.5 -0.9
    endloop
  endfacet
  facet normal -0 0 -1
    outer loop
      vertex -40.5 -40.5 -0.9
      vertex -48 -48 -0.9
      vertex -40.5 40.5 -0.9
    endloop
  endfacet
  facet normal 0 0 -1
    outer loop
      vertex -48 -48 -0.9
      vertex -40.5 -40.5 -0.9
      vertex 48 -48 -0.9
    endloop
  endfacet
  facet normal 0 0 -1
    outer loop
      vertex 40.5 40.5 -0.9
      vertex 48 48 -0.9
      vertex 40.5 -40.5 -0.9
    endloop
  endfacet
  facet normal 0 0 -1
    outer loop
      vertex -40.5 40.5 -0.9
      vertex 48 48 -0.9
      vertex 40.5 40.5 -0.9
    endloop
  endfacet
  facet normal 0 0 -1
    outer loop
      vertex -40.5 40.5 -0.9
      vertex -48 48 -0.9
      vertex 48 48 -0.9
    endloop
  endfacet
  facet normal 0 0 -1
    outer loop
      vertex -48 48 -0.9
      vertex -40.5 40.5 -0.9
      vertex -48 -48 -0.9
    endloop
  endfacet
  facet normal 0 -1 0
    outer loop
      vertex -48 -48 -0.9
      vertex 48 -48 0.9
      vertex -48 -48 0.9
    endloop
  endfacet
  facet normal 0 -1 -0
    outer loop
      vertex 48 -48 0.9
      vertex -48 -48 -0.9
      vertex 48 -48 -0.9
    endloop
  endfacet
  facet normal 0 1 -0
    outer loop
      vertex 48 48 -0.9
      vertex -48 48 0.9
      vertex 48 48 0.9
    endloop
  endfacet
  facet normal 0 1 0
    outer loop
      vertex -48 48 0.9
      vertex 48 48 -0.9
      vertex -48 48 -0.9
    endloop
  endfacet
  facet normal 1 -0 0
    outer loop
      vertex -40.5 -40.5 0.9
      vertex -40.5 40.5 -0.9
      vertex -40.5 40.5 0.9
    endloop
  endfacet
  facet normal 1 0 0
    outer loop
      vertex -40.5 40.5 -0.9
      vertex -40.5 -40.5 0.9
      vertex -40.5 -40.5 -0.9
    endloop
  endfacet
  facet normal -1 0 0
    outer loop
      vertex 40.5 -40.5 -0.9
      vertex 40.5 40.5 0.9
      vertex 40.5 40.5 -0.9
    endloop
  endfacet
  facet normal -1 -0 0
    outer loop
      vertex 40.5 40.5 0.9
      vertex 40.5 -40.5 -0.9
      vertex 40.5 -40.5 0.9
    endloop
  endfacet
  facet normal 0 -1 0
    outer loop
      vertex -40.5 40.5 -0.9
      vertex 40.5 40.5 0.9
      vertex -40.5 40.5 0.9
    endloop
  endfacet
  facet normal 0 -1 -0
    outer loop
      vertex 40.5 40.5 0.9
      vertex -40.5 40.5 -0.9
      vertex 40.5 40.5 -0.9
    endloop
  endfacet
  facet normal 0 1 -0
    outer loop
      vertex 40.5 -40.5 -0.9
      vertex -40.5 -40.5 0.9
      vertex 40.5 -40.5 0.9
    endloop
  endfacet
  facet normal 0 1 0
    outer loop
      vertex -40.5 -40.5 0.9
      vertex 40.5 -40.5 -0.9
      vertex -40.5 -40.5 -0.9
    endloop
  endfacet
endsolid OpenSCAD_Model
